<svg xmlns="http://www.w3.org/2000/svg" width="700" height="700" viewBox="195 160 700 700">
<g>
<path d="M 392.10 823.02 C387.89,827.44 385.35,827.92 380.33,825.21 C376.29,823.03 373.57,819.53 370.48,812.55 C366.02,802.46 364.56,793.81 364.58,777.50 C364.60,761.53 365.21,756.53 370.52,729.00 C376.87,696.08 377.26,688.11 373.06,676.89 C370.92,671.16 365.77,665.36 360.48,662.70 C356.47,660.69 347.02,659.00 339.76,659.00 C326.36,659.00 320.23,654.98 324.82,649.22 C334.10,637.58 335.02,634.71 332.52,625.07 C329.86,614.82 326.67,609.38 322.52,608.01 C318.51,606.68 316.57,603.86 317.39,600.58 C317.88,598.64 330.69,587.66 336.95,583.82 C338.14,583.09 341.64,578.45 344.74,573.50 C349.60,565.75 381.70,517.40 421.88,457.30 L 433.38 440.10 L 435.11 442.93 C440.28,451.44 449.79,454.50 471.00,454.47 C491.30,454.44 500.79,452.45 506.14,447.09 C510.58,442.66 511.62,438.96 512.51,424.50 C513.31,411.48 514.79,407.48 522.25,398.28 C528.42,390.67 535.21,386.10 537.52,388.02 C538.33,388.69 539.00,389.57 539.00,389.97 C539.00,390.36 535.92,395.45 532.15,401.27 C523.70,414.32 522.41,418.45 523.59,428.80 C525.12,442.23 524.69,455.83 522.53,462.50 C521.47,465.80 516.23,477.27 510.90,488.00 C505.57,498.73 501.29,507.59 501.38,507.70 C501.48,507.81 504.02,506.68 507.03,505.20 C512.25,502.63 512.72,502.06 517.20,493.00 C529.96,467.24 533.27,454.05 531.19,437.27 C530.53,431.90 529.99,426.11 529.99,424.41 C530.00,421.18 537.45,405.06 542.85,396.55 C547.24,389.66 547.01,386.63 541.75,381.76 C537.77,378.07 526.75,370.94 525.20,371.05 C524.81,371.08 522.47,373.59 520.00,376.64 C517.53,379.69 514.15,383.83 512.50,385.83 C498.43,402.93 493.83,405.36 471.68,407.43 C454.19,409.07 447.53,411.22 441.14,417.30 C436.19,422.02 420.60,444.23 374.67,512.00 C370.38,518.33 360.55,532.72 352.83,544.00 C345.10,555.28 334.97,570.24 330.30,577.25 C325.63,584.26 321.21,590.00 320.48,590.00 C319.74,590.00 318.21,588.69 317.07,587.10 C314.49,583.48 314.28,575.29 316.65,570.70 C317.55,568.94 331.58,547.92 347.82,524.00 C364.06,500.08 382.07,473.52 387.85,465.00 C421.45,415.39 426.33,408.64 432.54,403.18 C441.36,395.41 449.13,392.78 468.48,391.01 C483.28,389.66 487.39,387.58 498.43,375.85 C510.18,363.36 513.00,358.90 513.00,352.78 C513.00,346.81 515.08,342.53 518.97,340.52 C523.25,338.30 524.33,338.60 526.49,342.61 C527.56,344.60 530.25,347.69 532.47,349.49 C539.35,355.06 562.41,370.92 562.91,370.42 C563.70,369.63 553.95,360.19 545.43,353.51 C530.52,341.81 528.10,337.56 532.09,330.13 C535.17,324.39 538.61,321.91 544.40,321.26 C550.40,320.58 558.30,324.38 569.69,333.41 C582.89,343.89 588.39,352.33 586.61,359.42 C585.72,362.98 581.30,367.81 576.87,370.06 C573.71,371.68 573.00,372.58 573.00,374.96 C573.00,381.23 569.16,386.27 561.88,389.55 C558.34,391.15 557.45,392.51 549.94,407.86 C544.11,419.78 541.98,425.14 542.35,426.97 C545.15,440.88 545.90,448.87 544.96,454.75 C543.88,461.50 539.46,474.43 533.66,487.75 C531.69,492.29 530.25,496.00 530.47,496.00 C530.69,496.00 540.68,491.46 552.68,485.91 C564.68,480.35 583.95,471.62 595.50,466.49 C607.05,461.37 621.00,455.13 626.50,452.62 L 636.50 448.06 L 636.50 440.57 C636.51,434.26 636.82,432.84 638.50,431.57 C642.31,428.68 662.04,420.87 664.73,421.19 C667.04,421.46 667.57,422.21 668.77,426.99 C670.98,435.76 672.13,436.27 681.50,432.64 C687.98,430.13 693.08,430.55 697.83,433.99 C702.40,437.30 704.75,441.41 711.53,457.97 C718.69,475.45 717.76,480.76 706.56,486.43 C703.46,487.99 701.06,489.55 701.23,489.89 C707.00,501.47 708.28,505.02 708.38,509.69 C708.49,514.33 708.13,515.27 705.07,518.42 C700.78,522.85 693.16,526.79 660.50,541.47 C598.54,569.31 596.85,570.14 591.38,575.49 C582.66,584.02 579.76,597.07 583.50,611.00 C587.71,626.69 583.68,638.53 570.87,648.17 C559.48,656.74 506.23,678.57 488.61,681.90 C482.62,683.03 477.44,684.23 477.11,684.56 C476.15,685.52 474.85,750.99 475.48,766.57 C475.99,779.22 475.87,780.81 474.28,782.24 C473.30,783.12 459.23,789.91 443.00,797.33 C395.89,818.88 396.18,818.73 392.10,823.02 ZM 373.35 563.53 C373.04,564.34 373.31,565.00 373.96,565.00 C374.60,565.00 388.49,558.84 404.82,551.32 C421.14,543.79 444.85,533.09 457.50,527.53 L 480.50 517.42 L 488.58 502.46 C493.03,494.23 498.32,484.83 500.33,481.56 C504.69,474.51 504.81,473.74 501.43,475.02 C497.57,476.50 493.49,476.24 477.60,473.50 C461.62,470.75 449.79,470.34 440.65,472.23 C434.67,473.47 434.67,473.47 427.99,482.51 C408.20,509.31 375.62,557.62 373.35,563.53 ZM 663.50 348.63 C660.53,349.43 653.82,349.93 647.00,349.87 C635.73,349.76 635.23,349.66 622.00,344.68 L 608.50 339.60 L 595.75 339.55 C586.77,339.51 583.00,339.16 583.00,338.34 C583.00,336.52 588.96,331.93 595.00,329.10 C599.69,326.90 601.82,326.53 609.50,326.59 C617.42,326.65 619.63,327.11 627.93,330.36 C633.12,332.40 638.86,334.99 640.68,336.11 C643.13,337.63 644.00,337.81 644.00,336.81 C644.00,334.45 637.79,327.81 634.07,326.19 L 630.50 324.63 L 636.00 323.82 C651.18,321.56 655.08,320.69 659.84,318.48 C662.68,317.17 665.00,315.62 665.00,315.05 C665.00,314.46 662.85,314.00 660.11,314.00 C657.42,314.00 650.78,313.08 645.36,311.96 C617.72,306.23 600.95,309.31 579.23,324.12 C575.16,326.89 571.59,328.93 571.31,328.64 C571.02,328.35 571.10,324.83 571.49,320.81 L 572.19 313.50 L 580.34 305.48 C594.25,291.80 607.49,286.65 628.50,286.75 C638.30,286.79 642.24,287.29 650.00,289.45 C673.58,296.01 688.01,297.50 700.25,294.62 C703.41,293.87 706.00,293.55 706.00,293.89 C706.00,295.32 698.58,305.41 694.93,308.95 C692.78,311.03 688.57,314.03 685.57,315.60 C680.50,318.25 680.22,318.58 681.68,320.19 C683.67,322.40 689.72,324.69 697.88,326.34 L 704.26 327.63 L 700.38 330.64 C691.06,337.88 675.77,345.34 663.50,348.63 ZM 356.44 641.57 C357.51,642.36 358.79,643.00 359.29,643.00 C361.99,643.00 419.19,619.13 463.23,599.62 C487.65,588.80 539.29,565.63 585.00,544.98 C625.08,526.87 652.65,514.49 670.96,506.37 C678.91,502.84 686.44,499.29 687.69,498.47 C689.90,497.02 689.92,496.90 688.29,493.49 C687.38,491.57 685.96,490.00 685.15,490.00 C684.34,490.00 676.43,493.34 667.59,497.42 C650.45,505.33 600.21,528.08 568.00,542.52 C472.30,585.42 439.38,600.35 399.50,618.96 C385.20,625.64 369.67,632.72 365.00,634.71 C354.64,639.11 353.91,639.70 356.44,641.57 ZM 496.00 655.04 C506.67,658.71 511.74,657.62 539.30,645.69 C555.41,638.71 561.55,634.78 565.11,629.17 C568.80,623.35 569.55,617.87 567.65,610.61 C564.70,599.29 557.98,592.52 550.50,593.31 C548.30,593.55 540.09,596.61 532.25,600.11 C522.55,604.45 518.88,606.05 518.16,608.51 C517.73,609.99 518.36,611.78 519.39,614.68 L 519.48 614.94 C521.67,621.14 524.53,624.63 530.84,628.81 C535.61,631.97 536.50,633.02 536.50,635.53 C536.50,637.91 535.81,638.86 533.00,640.30 C523.44,645.23 504.18,635.20 498.04,622.09 C495.75,617.20 495.65,617.13 493.10,618.46 C487.23,621.53 481.99,629.67 482.01,635.72 C482.02,644.57 487.49,652.12 496.00,655.04 ZM 416.57 832.73 C405.00,837.85 400.06,837.96 396.25,833.18 C393.79,830.10 394.80,827.98 399.75,825.82 C402.36,824.69 418.49,817.29 435.60,809.38 C452.70,801.47 467.90,795.00 469.37,795.00 C472.84,795.00 474.39,798.59 472.84,803.03 C471.86,805.84 469.46,807.26 448.13,817.68 C435.13,824.02 420.93,830.79 416.57,832.73 ZM 687.39 463.25 C690.95,470.81 694.13,477.00 694.47,477.00 C695.94,477.00 703.00,472.87 703.00,472.01 C703.00,470.87 694.55,449.96 692.45,445.90 C690.36,441.87 688.09,440.90 684.49,442.53 C679.32,444.85 678.70,445.53 679.87,447.62 C680.46,448.65 683.84,455.69 687.39,463.25 ZM 562.78 351.63 C571.31,356.76 575.24,355.86 572.52,349.39 C569.86,343.07 552.72,330.47 547.74,331.18 C545.96,331.44 545.44,332.25 545.20,335.15 C544.91,338.57 545.28,339.10 551.03,343.52 C554.41,346.12 559.70,349.77 562.78,351.63 ZM 415.00 598.61 C415.00,599.32 416.06,599.02 419.05,597.47 C420.67,596.64 422.00,595.48 422.00,594.90 C422.00,592.79 411.75,569.00 410.84,569.00 C410.32,569.00 408.61,569.67 407.03,570.49 L 404.15 571.97 L 409.58 585.09 C412.56,592.31 415.00,598.39 415.00,598.61 ZM 379.35 599.31 C382.57,606.84 385.63,613.00 386.17,613.00 C388.16,613.00 391.00,610.87 391.00,609.37 C391.00,607.15 380.93,582.00 380.04,582.00 C378.28,582.00 372.94,584.29 373.20,584.93 C373.37,585.31 376.13,591.78 379.35,599.31 ZM 368.41 614.25 C369.82,617.41 371.38,620.00 371.88,620.00 C372.37,620.00 373.74,619.21 374.91,618.25 L 377.04 616.50 L 371.41 602.50 C368.31,594.80 365.64,588.35 365.48,588.18 C365.07,587.73 359.00,590.92 359.00,591.58 C359.00,592.21 364.76,606.09 368.41,614.25 ZM 395.05 593.75 C397.89,600.49 400.73,605.99 401.36,605.97 C402.97,605.92 406.00,603.48 406.00,602.22 C406.00,601.64 404.04,596.07 401.64,589.84 C399.24,583.60 397.00,577.73 396.68,576.78 C396.14,575.23 395.77,575.20 392.79,576.47 C390.63,577.40 389.57,578.50 389.70,579.69 C389.80,580.69 392.22,587.01 395.05,593.75 ZM 402.22 666.45 C403.91,667.16 406.13,667.52 407.17,667.25 C409.90,666.53 413.00,662.16 413.00,659.01 C413.00,655.26 408.84,651.00 405.18,651.00 C396.12,651.00 393.83,662.92 402.22,666.45 ZM 483.67 672.33 C484.63,673.29 490.25,673.13 491.90,672.09 C492.97,671.40 492.59,670.84 490.20,669.60 C485.99,667.43 483.00,667.53 483.00,669.83 C483.00,670.84 483.30,671.97 483.67,672.33 Z" fill="rgb(30,33,39)"/>
<path d="M 663.50 348.63 C675.77,345.34 691.06,337.88 700.38,330.64 L 704.26 327.63 L 697.88 326.34 C689.72,324.69 683.67,322.40 681.68,320.19 C680.22,318.58 680.50,318.25 685.57,315.60 C688.57,314.03 692.78,311.03 694.93,308.95 C698.58,305.41 706.00,295.32 706.00,293.89 C706.00,293.55 703.41,293.87 700.25,294.62 C688.01,297.50 673.58,296.01 650.00,289.45 C642.24,287.29 638.30,286.79 628.50,286.75 C607.49,286.65 594.25,291.80 580.34,305.48 L 572.61 313.09 C572.89,311.19 573.20,309.21 573.55,307.18 C577.39,284.63 592.55,268.11 616.64,260.19 C620.00,259.09 630.19,256.56 639.29,254.56 C648.38,252.57 659.74,249.61 664.52,247.99 C678.66,243.21 693.27,234.18 699.36,226.46 C703.50,221.21 704.51,222.95 704.47,235.30 C704.44,243.68 704.05,246.30 702.26,250.00 C700.91,252.79 700.49,254.64 701.15,254.87 C704.94,256.18 727.76,247.05 739.55,239.51 C754.09,230.21 766.21,214.95 771.69,199.05 C773.50,193.80 774.99,189.27 774.99,189.00 C775.03,187.73 778.95,195.20 781.56,201.50 C784.28,208.06 784.46,209.35 784.43,222.00 C784.41,233.90 784.08,236.57 781.62,244.50 C778.37,255.02 774.00,263.42 766.61,273.36 C761.42,280.33 752.53,289.35 746.50,293.75 L 743.50 295.94 L 750.56 295.97 C758.13,296.00 771.95,292.99 778.44,289.88 C780.60,288.85 782.73,288.00 783.16,288.00 C783.60,288.00 782.43,291.33 780.58,295.40 C766.18,326.99 743.47,347.10 711.50,356.53 C703.83,358.80 700.14,359.25 686.50,359.59 C666.37,360.10 659.63,358.74 633.68,348.99 C632.34,348.49 631.06,348.01 629.84,347.56 C636.14,349.71 638.52,349.79 647.00,349.87 C653.82,349.93 660.53,349.43 663.50,348.63 ZM 373.35 563.53 C375.62,557.62 408.20,509.31 427.99,482.51 C434.67,473.47 434.67,473.47 440.65,472.23 C449.79,470.34 461.62,470.75 477.60,473.50 C493.49,476.24 497.57,476.50 501.43,475.02 C504.81,473.74 504.69,474.51 500.33,481.56 C498.32,484.83 493.03,494.23 488.58,502.46 L 480.50 517.42 L 457.50 527.53 C444.85,533.09 421.14,543.79 404.82,551.32 C388.49,558.84 374.60,565.00 373.96,565.00 C373.31,565.00 373.04,564.34 373.35,563.53 ZM 622.07 344.70 C613.86,341.76 608.84,340.27 604.35,339.58 L 608.50 339.60 L 622.00 344.68 ZM 571.15 325.81 C571.11,327.40 571.15,328.49 571.31,328.64 C571.59,328.92 574.97,327.00 578.89,324.35 C575.08,326.93 571.75,329.00 571.40,329.00 C571.11,329.00 571.04,327.82 571.15,325.81 ZM 586.45 339.28 C584.00,339.20 583.00,338.91 583.00,338.37 C583.00,338.36 583.00,338.35 583.00,338.34 C583.00,338.78 584.08,339.08 586.45,339.28 Z" fill="rgb(235,99,27)"/>
<path d="M 0.00 512.00 L 0.00 0.00 L 512.00 0.00 L 1024.00 0.00 L 1024.00 512.00 L 1024.00 1024.00 L 512.00 1024.00 L 0.00 1024.00 L 0.00 512.00 ZM 416.57 832.73 C420.93,830.79 435.13,824.02 448.13,817.68 C469.46,807.26 471.86,805.84 472.84,803.03 C474.39,798.59 472.84,795.00 469.37,795.00 C467.90,795.00 452.70,801.47 435.60,809.38 C418.49,817.29 402.36,824.69 399.75,825.82 C394.80,827.98 393.79,830.10 396.25,833.18 C400.06,837.96 405.00,837.85 416.57,832.73 ZM 392.10 823.02 C396.18,818.73 395.89,818.88 443.00,797.33 C459.23,789.91 473.30,783.12 474.28,782.24 C475.87,780.81 475.99,779.22 475.48,766.57 C474.85,750.99 476.15,685.52 477.11,684.56 C477.44,684.23 482.62,683.03 488.61,681.90 C506.23,678.57 559.48,656.74 570.87,648.17 C583.68,638.53 587.71,626.69 583.50,611.00 C579.76,597.07 582.66,584.02 591.38,575.49 C596.85,570.14 598.54,569.31 660.50,541.47 C693.16,526.79 700.78,522.85 705.07,518.42 C708.13,515.27 708.49,514.33 708.38,509.69 C708.28,505.02 707.00,501.47 701.23,489.89 C701.06,489.55 703.46,487.99 706.56,486.43 C717.76,480.76 718.69,475.45 711.53,457.97 C704.75,441.41 702.40,437.30 697.83,433.99 C693.08,430.55 687.98,430.13 681.50,432.64 C672.13,436.27 670.98,435.76 668.77,426.99 C667.57,422.21 667.04,421.46 664.73,421.19 C662.04,420.87 642.31,428.68 638.50,431.57 C636.82,432.84 636.51,434.26 636.50,440.57 L 636.50 448.06 L 626.50 452.62 C621.00,455.13 607.05,461.37 595.50,466.49 C583.95,471.62 564.68,480.35 552.68,485.91 C540.68,491.46 530.69,496.00 530.47,496.00 C530.25,496.00 531.69,492.29 533.66,487.75 C539.46,474.43 543.88,461.50 544.96,454.75 C545.90,448.87 545.15,440.88 542.35,426.97 C541.98,425.14 544.11,419.78 549.94,407.86 C557.45,392.51 558.34,391.15 561.88,389.55 C569.16,386.27 573.00,381.23 573.00,374.96 C573.00,372.58 573.71,371.68 576.87,370.06 C581.30,367.81 585.72,362.98 586.61,359.42 C588.39,352.33 582.89,343.89 569.69,333.41 C558.30,324.38 550.40,320.58 544.40,321.26 C538.61,321.91 535.17,324.39 532.09,330.13 C528.10,337.56 530.52,341.81 545.43,353.51 C553.95,360.19 563.70,369.63 562.91,370.42 C562.41,370.92 539.35,355.06 532.47,349.49 C530.25,347.69 527.56,344.60 526.49,342.61 C524.33,338.60 523.25,338.30 518.97,340.52 C515.08,342.53 513.00,346.81 513.00,352.78 C513.00,358.90 510.18,363.36 498.43,375.85 C487.39,387.58 483.28,389.66 468.48,391.01 C449.13,392.78 441.36,395.41 432.54,403.18 C426.33,408.64 421.45,415.39 387.85,465.00 C382.07,473.52 364.06,500.08 347.82,524.00 C331.58,547.92 317.55,568.94 316.65,570.70 C314.28,575.29 314.49,583.48 317.07,587.10 C318.21,588.69 319.74,590.00 320.48,590.00 C321.21,590.00 325.63,584.26 330.30,577.25 C334.97,570.24 345.10,555.28 352.83,544.00 C360.55,532.72 370.38,518.33 374.67,512.00 C420.60,444.23 436.19,422.02 441.14,417.30 C447.53,411.22 454.19,409.07 471.68,407.43 C493.83,405.36 498.43,402.93 512.50,385.83 C514.15,383.83 517.53,379.69 520.00,376.64 C522.47,373.59 524.81,371.08 525.20,371.05 C526.75,370.94 537.77,378.07 541.75,381.76 C547.01,386.63 547.24,389.66 542.85,396.55 C537.45,405.06 530.00,421.18 529.99,424.41 C529.99,426.11 530.53,431.90 531.19,437.27 C533.27,454.05 529.96,467.24 517.20,493.00 C512.72,502.06 512.25,502.63 507.03,505.20 C504.02,506.68 501.48,507.81 501.38,507.70 C501.29,507.59 505.57,498.73 510.90,488.00 C516.23,477.27 521.47,465.80 522.53,462.50 C524.69,455.83 525.12,442.23 523.59,428.80 C522.41,418.45 523.70,414.32 532.15,401.27 C535.92,395.45 539.00,390.36 539.00,389.97 C539.00,389.57 538.33,388.69 537.52,388.02 C535.21,386.10 528.42,390.67 522.25,398.28 C514.79,407.48 513.31,411.48 512.51,424.50 C511.62,438.96 510.58,442.66 506.14,447.09 C500.79,452.45 491.30,454.44 471.00,454.47 C449.79,454.50 440.28,451.44 435.11,442.93 L 433.38 440.10 L 421.88 457.30 C381.70,517.40 349.60,565.75 344.74,573.50 C341.64,578.45 338.14,583.09 336.95,583.82 C330.69,587.66 317.88,598.64 317.39,600.58 C316.57,603.86 318.51,606.68 322.52,608.01 C326.67,609.38 329.86,614.82 332.52,625.07 C335.02,634.71 334.10,637.58 324.82,649.22 C320.23,654.98 326.36,659.00 339.76,659.00 C347.02,659.00 356.47,660.69 360.48,662.70 C365.77,665.36 370.92,671.16 373.06,676.89 C377.26,688.11 376.87,696.08 370.52,729.00 C365.21,756.53 364.60,761.53 364.58,777.50 C364.56,793.81 366.02,802.46 370.48,812.55 C373.57,819.53 376.29,823.03 380.33,825.21 C385.35,827.92 387.89,827.44 392.10,823.02 ZM 711.50 356.53 C743.47,347.10 766.18,326.99 780.58,295.40 C782.43,291.33 783.60,288.00 783.16,288.00 C782.73,288.00 780.60,288.85 778.44,289.88 C771.95,292.99 758.13,296.00 750.56,295.97 L 743.50 295.94 L 746.50 293.75 C752.53,289.35 761.42,280.33 766.61,273.36 C774.00,263.42 778.37,255.02 781.62,244.50 C784.08,236.57 784.41,233.90 784.43,222.00 C784.46,209.35 784.28,208.06 781.56,201.50 C778.95,195.20 775.03,187.73 774.99,189.00 C774.99,189.27 773.50,193.80 771.69,199.05 C766.21,214.95 754.09,230.21 739.55,239.51 C727.76,247.05 704.94,256.18 701.15,254.87 C700.49,254.64 700.91,252.79 702.26,250.00 C704.05,246.30 704.44,243.68 704.47,235.30 C704.51,222.95 703.50,221.21 699.36,226.46 C693.27,234.18 678.66,243.21 664.52,247.99 C659.74,249.61 648.38,252.57 639.29,254.56 C630.19,256.56 620.00,259.09 616.64,260.19 C592.55,268.11 577.39,284.63 573.55,307.18 C571.58,318.75 570.57,329.00 571.40,329.00 C571.77,329.00 575.34,326.77 579.35,324.04 C600.95,309.32 617.77,306.24 645.36,311.96 C650.78,313.08 657.42,314.00 660.11,314.00 C662.85,314.00 665.00,314.46 665.00,315.05 C665.00,315.62 662.68,317.17 659.84,318.48 C655.08,320.69 651.18,321.56 636.00,323.82 L 630.50 324.63 L 634.07 326.19 C637.79,327.81 644.00,334.45 644.00,336.81 C644.00,337.81 643.13,337.63 640.68,336.11 C638.86,334.99 633.12,332.40 627.93,330.36 C619.63,327.11 617.42,326.65 609.50,326.59 C601.82,326.53 599.69,326.90 595.00,329.10 C588.91,331.96 583.00,336.53 583.00,338.37 C583.00,339.25 585.64,339.46 592.80,339.18 C604.87,338.69 608.72,339.62 633.68,348.99 C659.63,358.74 666.37,360.10 686.50,359.59 C700.14,359.25 703.83,358.80 711.50,356.53 ZM 483.67 672.33 C483.30,671.97 483.00,670.84 483.00,669.83 C483.00,667.53 485.99,667.43 490.20,669.60 C492.59,670.84 492.97,671.40 491.90,672.09 C490.25,673.13 484.63,673.29 483.67,672.33 ZM 402.22 666.45 C393.83,662.92 396.12,651.00 405.18,651.00 C408.84,651.00 413.00,655.26 413.00,659.01 C413.00,662.16 409.90,666.53 407.17,667.25 C406.13,667.52 403.91,667.16 402.22,666.45 ZM 496.00 655.04 C487.49,652.12 482.02,644.57 482.01,635.72 C481.99,629.67 487.23,621.53 493.10,618.46 C495.65,617.13 495.75,617.20 498.04,622.09 C504.18,635.20 523.44,645.23 533.00,640.30 C535.81,638.86 536.50,637.91 536.50,635.53 C536.50,633.02 535.61,631.97 530.84,628.81 C524.53,624.63 521.67,621.14 519.48,614.94 C516.67,606.97 516.52,607.14 532.25,600.11 C540.09,596.61 548.30,593.55 550.50,593.31 C557.98,592.52 564.70,599.29 567.65,610.61 C569.55,617.87 568.80,623.35 565.11,629.17 C561.55,634.78 555.41,638.71 539.30,645.69 C511.74,657.62 506.67,658.71 496.00,655.04 ZM 356.44 641.57 C353.91,639.70 354.64,639.11 365.00,634.71 C369.67,632.72 385.20,625.64 399.50,618.96 C439.38,600.35 472.30,585.42 568.00,542.52 C600.21,528.08 650.45,505.33 667.59,497.42 C676.43,493.34 684.34,490.00 685.15,490.00 C685.96,490.00 687.38,491.57 688.29,493.49 C689.92,496.90 689.90,497.02 687.69,498.47 C686.44,499.29 678.91,502.84 670.96,506.37 C652.65,514.49 625.08,526.87 585.00,544.98 C539.29,565.63 487.65,588.80 463.23,599.62 C419.19,619.13 361.99,643.00 359.29,643.00 C358.79,643.00 357.51,642.36 356.44,641.57 ZM 368.41 614.25 C364.76,606.09 359.00,592.21 359.00,591.58 C359.00,590.92 365.07,587.73 365.48,588.18 C365.64,588.35 368.31,594.80 371.41,602.50 L 377.04 616.50 L 374.91 618.25 C373.74,619.21 372.37,620.00 371.88,620.00 C371.38,620.00 369.82,617.41 368.41,614.25 ZM 379.35 599.31 C376.13,591.78 373.37,585.31 373.20,584.93 C372.94,584.29 378.28,582.00 380.04,582.00 C380.93,582.00 391.00,607.15 391.00,609.37 C391.00,610.87 388.16,613.00 386.17,613.00 C385.63,613.00 382.57,606.84 379.35,599.31 ZM 395.05 593.75 C392.22,587.01 389.80,580.69 389.70,579.69 C389.57,578.50 390.63,577.40 392.79,576.47 C395.77,575.20 396.14,575.23 396.68,576.78 C397.00,577.73 399.24,583.60 401.64,589.84 C404.04,596.07 406.00,601.64 406.00,602.22 C406.00,603.48 402.97,605.92 401.36,605.97 C400.73,605.99 397.89,600.49 395.05,593.75 ZM 415.00 598.61 C415.00,598.39 412.56,592.31 409.58,585.09 L 404.15 571.97 L 407.03 570.49 C408.61,569.67 410.32,569.00 410.84,569.00 C411.75,569.00 422.00,592.79 422.00,594.90 C422.00,595.48 420.67,596.64 419.05,597.47 C416.06,599.02 415.00,599.32 415.00,598.61 ZM 687.39 463.25 C683.84,455.69 680.46,448.65 679.87,447.62 C678.70,445.53 679.32,444.85 684.49,442.53 C688.09,440.90 690.36,441.87 692.45,445.90 C694.55,449.96 703.00,470.87 703.00,472.01 C703.00,472.87 695.94,477.00 694.47,477.00 C694.13,477.00 690.95,470.81 687.39,463.25 ZM 562.78 351.63 C559.70,349.77 554.41,346.12 551.03,343.52 C545.28,339.10 544.91,338.57 545.20,335.15 C545.44,332.25 545.96,331.44 547.74,331.18 C552.72,330.47 569.86,343.07 572.52,349.39 C575.24,355.86 571.31,356.76 562.78,351.63 Z" fill="rgb(254,254,254)"/>
</g>
</svg>